<?xml version="1.0" encoding="UTF-8"?>
<svg width="20px" height="20px" viewBox="0 0 20 20" version="1.1" xmlns="http://www.w3.org/2000/svg" xmlns:xlink="http://www.w3.org/1999/xlink">
    <!-- Generator: Sketch 52.5 (67469) - http://www.bohemiancoding.com/sketch -->
    <title>分组</title>
    <desc>Created with Sketch.</desc>
    <g id="用户侧设计稿" stroke="none" stroke-width="1" fill="none" fill-rule="evenodd">
        <g id="图标切图" transform="translate(-438.000000, -18.000000)" fill="#464646">
            <g id="分组-11" transform="translate(438.000000, 18.000000)">
                <g id="分组">
                    <path d="M10,1.502 C9.739,1.502 9.4785,1.5845 9.2555,1.75 L2.0055,7.126 C1.689,7.3605 1.5,7.7355 1.5,8.1295 L1.5,17.254 C1.5,17.943 2.061,18.504 2.75,18.504 L17.25,18.504 C17.939,18.504 18.5,17.943 18.5,17.254 L18.5,8.1295 C18.5,7.7355 18.311,7.3605 17.9945,7.126 L10.7445,1.75 C10.5215,1.5845 10.261,1.502 10,1.502 M17.25,20.004 L2.75,20.004 C1.2335,20.004 0,18.7705 0,17.254 L0,8.1295 C0,7.2625 0.416,6.437 1.112,5.9205 L8.362,0.5445 C9.342,-0.1815 10.658,-0.1815 11.638,0.5445 L18.888,5.9205 C19.584,6.437 20,7.2625 20,8.1295 L20,17.254 C20,18.7705 18.7665,20.004 17.25,20.004" id="Fill-1"></path>
                    <path d="M13.25195,15.5 L6.87095,15.5 C6.45695,15.5 6.12095,15.1645 6.12095,14.75 C6.12095,14.3355 6.45695,14 6.87095,14 L13.25195,14 C13.66645,14 14.00195,14.3355 14.00195,14.75 C14.00195,15.1645 13.66645,15.5 13.25195,15.5" id="Fill-3"></path>
                </g>
            </g>
        </g>
    </g>
</svg>