<?xml version="1.0" encoding="UTF-8"?>
<svg width="20px" height="20px" viewBox="0 0 20 20" version="1.1" xmlns="http://www.w3.org/2000/svg" xmlns:xlink="http://www.w3.org/1999/xlink">
    <!-- Generator: Sketch 55.2 (78181) - https://sketchapp.com -->
    <title>分组</title>
    <desc>Created with Sketch.</desc>
    <g id="设计稿" stroke="none" stroke-width="1" fill="none" fill-rule="evenodd">
        <g id="店铺主页-堂食" transform="translate(-19.000000, -55.000000)" fill="#FFFFFF">
            <g id="编组-13" transform="translate(7.000000, 50.000000)">
                <g id="分组-11" transform="translate(12.000000, 5.000000)">
                    <g id="分组">
                        <path d="M9.29929412,2.23338431 L2.47576471,7.29255382 C2.17788235,7.51323374 2,7.8661334 2,8.2369133 L2,16.8236678 C2,17.4720621 2.528,18 3.17647059,18 L16.8235294,18 C17.472,18 18,17.4720621 18,16.8236678 L18,8.2369133 C18,7.8661334 17.8221176,7.51323374 17.5242353,7.29255382 L10.7007059,2.23338431 C10.4908235,2.07763792 10.2456471,2 10,2 C9.75435294,2 9.50917647,2.07763792 9.29929412,2.23338431 Z M2.75,20.004 C1.2335,20.004 0,18.7705 0,17.254 L0,8.1295 C0,7.2625 0.416,6.437 1.112,5.9205 L8.362,0.5445 C9.342,-0.1815 10.658,-0.1815 11.638,0.5445 L18.888,5.9205 C19.584,6.437 20,7.2625 20,8.1295 L20,17.254 C20,18.7705 18.7665,20.004 17.25,20.004 L2.75,20.004 Z" id="Fill-1"></path>
                        <rect id="矩形" x="6" y="14" width="8" height="2" rx="1"></rect>
                    </g>
                </g>
            </g>
        </g>
    </g>
</svg>